<svg xmlns="http://www.w3.org/2000/svg" xmlns:xlink="http://www.w3.org/1999/xlink" viewBox="0 0 48.55 94.41"><defs><style>.cls-1{fill:none;}.cls-2{clip-path:url(#clip-path);}.cls-3{fill:#1f49c4;}.cls-4{fill:#d9e8e3;}.cls-5{fill:#fff;}</style><clipPath id="clip-path" transform="translate(-23.21 -11.1)"><circle class="cls-1" cx="46.01" cy="46.01" r="46.01"/></clipPath></defs><title>Asset 6</title><g id="Layer_2" data-name="Layer 2"><g id="OBJECTS"><g class="cls-2"><path class="cls-3" d="M23,57.7h0A20.72,20.72,0,0,1,43.68,78.42v16a0,0,0,0,1,0,0H2.23a0,0,0,0,1,0,0v-16A20.72,20.72,0,0,1,23,57.7Z"/><path class="cls-4" d="M46.16,77.41h0a5.71,5.71,0,0,1-5.71-5.71V60.19H51.87V71.7A5.71,5.71,0,0,1,46.16,77.41Z" transform="translate(-23.21 -11.1)"/><rect class="cls-4" x="23.21" y="37.25" width="45.74" height="14.15" rx="6.01" transform="translate(68.94 77.56) rotate(180)"/><rect class="cls-5" x="4.89" y="3.65" width="36.12" height="54.44" rx="18.06"/><path class="cls-3" d="M50.24,41.14a1.83,1.83,0,1,0,1.83-1.83A1.83,1.83,0,0,0,50.24,41.14Z" transform="translate(-23.21 -11.1)"/><path class="cls-3" d="M38.42,41.14a1.83,1.83,0,1,0,1.83-1.83A1.83,1.83,0,0,0,38.42,41.14Z" transform="translate(-23.21 -11.1)"/><path class="cls-3" d="M46,50.33h-.36a9,9,0,0,1-7-3,.52.52,0,0,1,.79-.69,8.05,8.05,0,0,0,6.19,2.63c3.13.07,5.51-.82,7.13-2.63a.52.52,0,1,1,.78.7A9.65,9.65,0,0,1,46,50.33Z" transform="translate(-23.21 -11.1)"/><path class="cls-3" d="M63,11.1H38.06a10,10,0,0,0-10,10l.07,21.18a8,8,0,0,0,4.48-7.18v-6.5H59.7v6.5a8,8,0,0,0,4.48,7.18V28.55a8.76,8.76,0,0,0,7.57-8.68h0A8.76,8.76,0,0,0,63,11.1Z" transform="translate(-23.21 -11.1)"/><path class="cls-3" d="M43.07,35.11H37.45a.53.53,0,1,1,0-1h5.62a.53.53,0,1,1,0,1Z" transform="translate(-23.21 -11.1)"/><path class="cls-3" d="M55,35.11H49.35a.53.53,0,1,1,0-1H55a.53.53,0,1,1,0,1Z" transform="translate(-23.21 -11.1)"/><path class="cls-4" d="M46.11,46.92a2.59,2.59,0,0,1-2.6-2.6.54.54,0,1,1,1.08,0,1.52,1.52,0,1,0,3,0,.54.54,0,1,1,1.08,0A2.59,2.59,0,0,1,46.11,46.92Z" transform="translate(-23.21 -11.1)"/></g></g></g></svg>